<?xml version="1.0" encoding="UTF-8"?>
<svg width="149px" height="22px" viewBox="0 0 149 22" version="1.1" xmlns="http://www.w3.org/2000/svg" xmlns:xlink="http://www.w3.org/1999/xlink">
    <!-- Generator: sketchtool 57.1 (101010) - https://sketch.com -->
    <title>28D7720B-1D53-47AD-9F04-8B084F772614</title>
    <desc>Created with sketchtool.</desc>
    <g id="Desktop" stroke="none" stroke-width="1" fill="none" fill-rule="evenodd">
        <g id="Inform" transform="translate(-82.000000, -52.000000)" fill="#000000">
            <g id="ArtsMatter-Logo" transform="translate(82.000000, 52.000000)">
                <path d="M12.963,13.4265672 L11.1939934,8.44143284 L10.9195714,6.08644776 L10.6756044,6.08644776 L10.4008549,8.44143284 L8.63184835,13.4265672 L12.963,13.4265672 Z M8.35742637,0 L13.237422,0 L21.5951758,21.4086269 L15.7998945,21.4086269 L14.6101868,18.0751343 L6.98466154,18.0751343 L5.79528132,21.4086269 L0,21.4086269 L8.35742637,0 Z" id="Fill-1"></path>
                <path d="M27.4831646,7.86010746 C28.4894877,6.63664478 29.8622525,5.81115224 31.6312591,5.81115224 C32.2413404,5.81115224 32.8209341,5.90276418 33.1867209,6.0557791 L32.6071273,10.001003 L32.2717954,10.3067045 C32.0278284,10.2459582 31.6008042,10.1540179 31.2042349,10.1540179 C29.5878305,10.1540179 28.2759756,11.0103761 27.4831646,12.8147045 L27.4831646,21.4088239 L22.4197844,21.4088239 L22.4197844,6.11685373 L27.4831646,6.11685373 L27.4831646,7.86010746 Z" id="Fill-2"></path>
                <path d="M41.4537648,6.11678806 L44.4429341,6.11678806 L44.4429341,9.48114627 L41.4537648,9.48114627 L41.4537648,16.1793254 C41.4537648,17.1883701 42.0638462,17.6470866 42.9483495,17.6470866 C43.3144637,17.6470866 43.6193407,17.5856836 43.9854549,17.4326687 L44.2906593,17.6165493 L44.2906593,21.4087582 C43.3144637,21.6231761 42.5521077,21.7144597 41.4842198,21.7144597 C38.5867429,21.7144597 36.3907121,20.2463701 36.3907121,16.6682507 L36.3907121,9.48114627 L33.859022,9.48114627 L33.859022,6.11678806 L36.3907121,6.11678806 L36.3907121,1.83499701 L37.2143055,1.83499701 L41.4537648,3.27254925 L41.4537648,6.11678806 Z" id="Fill-3"></path>
                <path d="M51.1842835,9.11404179 C50.2689978,9.11404179 49.7810637,9.51168358 49.7810637,10.0012657 C49.7810637,10.8572955 50.8790791,11.1938627 53.7461011,11.9888179 C56.6439055,12.7841015 58.1080352,14.0686388 58.1080352,16.6071761 C58.1080352,19.4819522 55.6984923,21.7144597 51.8248198,21.7144597 C48.1646593,21.7144597 45.9683011,20.0936836 44.961978,17.4940716 L45.1447077,16.9128776 L48.7744132,15.4451164 C49.0796176,16.9739522 49.9641209,17.9833254 51.8248198,17.9833254 C52.8619253,17.9833254 53.5021341,17.524609 53.5021341,16.8209373 C53.5021341,16.0568478 53.1668022,15.6897433 50.6658945,15.0780119 C47.5237956,14.3132657 45.6329692,12.8760418 45.6329692,10.3069672 C45.6329692,7.76842985 47.8899099,5.81108657 51.3061033,5.81108657 C54.5392396,5.81108657 56.5829956,7.15669851 57.3453516,9.45060896 L57.1013846,9.93986269 L53.5633714,11.1327881 C53.1972571,9.81738507 52.3127538,9.11404179 51.1842835,9.11404179" id="Fill-4"></path>
                <polygon id="Fill-5" points="76.2575451 14.0381343 73.177011 21.408791 68.784622 21.408791 65.7037604 14.0381343 65.1853714 10.0925821 64.8804945 10.0925821 64.8804945 21.408791 59.3291802 21.408791 59.3291802 0.000164179104 64.9414044 0.000164179104 70.9806527 14.6193284 77.0202286 0.000164179104 82.6324527 0.000164179104 82.6324527 21.408791 77.0811385 21.408791 77.0811385 10.0925821 76.7759341 10.0925821"></polygon>
                <path d="M93.310022,15.9037343 L93.310022,14.6500627 L90.5651473,15.0168388 C89.3142022,15.200391 88.612756,15.7510478 88.612756,16.6379433 C88.612756,17.4939731 89.2837473,18.0751672 90.1987055,18.0751672 C91.5410154,18.0751672 92.517211,17.2490179 93.310022,15.9037343 M84.0373099,16.9433164 C84.0373099,14.2215552 85.9284637,12.4172269 89.5280418,12.0501224 L93.310022,11.6524806 L93.310022,11.1937642 C93.310022,9.97062985 92.6387033,9.2364209 91.2662659,9.2364209 C89.8938286,9.2364209 89.2228374,10.0927791 89.1927099,11.1632269 L84.9522681,10.7045104 L84.7999934,10.3984806 C85.5318945,7.46262985 87.8500725,5.81098806 91.2662659,5.81098806 C95.0790286,5.81098806 98.0681978,7.73779403 98.0681978,11.7138836 L98.0681978,16.3013761 C98.0681978,17.2798836 98.464767,17.6775254 99.0440659,17.6775254 C99.1969956,17.6775254 99.2883604,17.6775254 99.5018725,17.6164507 L99.7458396,17.8610776 L99.7458396,21.2861821 C98.983156,21.5311373 98.1903451,21.5925403 97.427989,21.5925403 C96.0552242,21.5925403 94.6520044,21.0724209 93.797956,19.6657343 L93.4930791,19.6657343 C92.1812242,21.0113463 91.1444462,21.7143612 88.887178,21.7143612 C86.4471802,21.7143612 84.0373099,19.9408985 84.0373099,16.9433164" id="Fill-6"></path>
                <path d="M106.304787,6.11678806 L109.293956,6.11678806 L109.293956,9.48114627 L106.304787,9.48114627 L106.304787,16.1793254 C106.304787,17.1883701 106.914541,17.6470866 107.799371,17.6470866 C108.165158,17.6470866 108.470035,17.5856836 108.836149,17.4326687 L109.141354,17.6165493 L109.141354,21.4087582 C108.165158,21.6231761 107.402475,21.7144597 106.335242,21.7144597 C103.437765,21.7144597 101.241407,20.2463701 101.241407,16.6682507 L101.241407,9.48114627 L98.7097165,9.48114627 L98.7097165,6.11678806 L101.241407,6.11678806 L101.241407,1.83499701 L102.064673,1.83499701 L106.304787,3.27254925 L106.304787,6.11678806 Z" id="Fill-7"></path>
                <path d="M117.743075,6.11678806 L120.731916,6.11678806 L120.731916,9.48114627 L117.743075,9.48114627 L117.743075,16.1793254 C117.743075,17.1883701 118.352829,17.6470866 119.237659,17.6470866 C119.603774,17.6470866 119.908651,17.5856836 120.274437,17.4326687 L120.579642,17.6165493 L120.579642,21.4087582 C119.603774,21.6231761 118.840763,21.7144597 117.77353,21.7144597 C114.875725,21.7144597 112.679695,20.2463701 112.679695,16.6682507 L112.679695,9.48114627 L110.148004,9.48114627 L110.148004,6.11678806 L112.679695,6.11678806 L112.679695,1.83499701 L113.50296,1.83499701 L117.743075,3.27254925 L117.743075,6.11678806 Z" id="Fill-8"></path>
                <path d="M132.262552,11.9279075 C132.04904,10.5208925 130.890114,9.41990746 129.090325,9.41990746 C127.626196,9.41990746 126.314668,10.3987433 125.948881,11.9279075 L132.262552,11.9279075 Z M125.796279,14.8942955 C126.070374,16.576803 127.351774,17.7388627 129.242927,17.7388627 C130.981152,17.7388627 131.71338,16.9741164 132.232097,15.7815194 L136.349409,16.3318478 L136.654941,16.8516388 C135.343086,20.307609 132.720031,21.7146239 129.12078,21.7146239 C124.667481,21.7146239 121.099013,18.5338179 121.099013,13.7627731 C121.099013,8.99172836 124.911776,5.81092239 129.12078,5.81092239 C133.878956,5.81092239 137.051182,8.80850448 137.051182,13.7322358 L137.051182,14.8942955 L125.796279,14.8942955 Z" id="Fill-9"></path>
                <path d="M143.213888,7.86010746 C144.220538,6.63664478 145.592976,5.81115224 147.361982,5.81115224 C147.972064,5.81115224 148.55169,5.90276418 148.917477,6.0557791 L148.337851,10.001003 L148.002519,10.3067045 C147.758224,10.2459582 147.3312,10.1540179 146.934958,10.1540179 C145.318226,10.1540179 144.006699,11.0103761 143.213888,12.8147045 L143.213888,21.4088239 L138.150508,21.4088239 L138.150508,6.11685373 L143.213888,6.11685373 L143.213888,7.86010746 Z" id="Fill-10"></path>
            </g>
        </g>
    </g>
</svg>