<?xml version="1.0" encoding="UTF-8"?>
<svg width="19px" height="10px" viewBox="0 0 19 10" version="1.1" xmlns="http://www.w3.org/2000/svg" xmlns:xlink="http://www.w3.org/1999/xlink">
    <!-- Generator: sketchtool 57.1 (101010) - https://sketch.com -->
    <title>68BE66EC-57AF-4DE4-B4A0-1B3D8092F418</title>
    <desc>Created with sketchtool.</desc>
    <g id="Desktop" stroke="none" stroke-width="1" fill="none" fill-rule="evenodd">
        <g id="Inform" transform="translate(-265.000000, -559.000000)" fill="#CC4FAA" stroke="#CC4FAA">
            <g id="Arrow-for-Button" transform="translate(265.000000, 560.000000)">
                <path d="M17.5487226,4.48025625 L12.9593032,8.36825625 C12.8507226,8.47175625 12.6759484,8.47175625 12.5691097,8.36825625 C12.460529,8.26363125 12.460529,8.09488125 12.5691097,7.99025625 L16.6858839,4.50388125 L0.290322581,4.498875 C0.130064516,4.498875 -3.55271368e-15,4.3734375 -3.55271368e-15,4.2181875 C-3.55271368e-15,4.062375 0.130064516,3.9375 0.290322581,3.9375 L16.6858839,3.94250625 L12.5691097,0.45556875 C12.460529,0.35206875 12.460529,0.18275625 12.5691097,0.07813125 C12.6759484,-0.02593125 12.8507226,-0.02593125 12.9593032,0.07813125 L17.5487226,3.96556875 C17.5824,3.97850625 17.6143355,3.99819375 17.6416258,4.02463125 C17.6602065,4.04206875 17.6573032,4.06850625 17.6694968,4.08875625 C17.6793677,4.10619375 17.6869161,4.12419375 17.6933032,4.14388125 C17.6956258,4.15231875 17.6927226,4.15906875 17.6944645,4.16750625 C17.7200129,4.25694375 17.7142065,4.35144375 17.6416258,4.42175625 C17.6143355,4.44875625 17.5824,4.46788125 17.5487226,4.48025625 Z" id="Fill-1"></path>
            </g>
        </g>
    </g>
</svg>