<?xml version="1.0" encoding="UTF-8"?>
<svg width="23px" height="18px" viewBox="0 0 23 18" version="1.1" xmlns="http://www.w3.org/2000/svg" xmlns:xlink="http://www.w3.org/1999/xlink">
    <!-- Generator: sketchtool 57.1 (101010) - https://sketch.com -->
    <title>C2B316F8-63EC-4223-8FBE-4A1C21BC1DA6</title>
    <desc>Created with sketchtool.</desc>
    <g id="Desktop" stroke="none" stroke-width="1" fill="none" fill-rule="evenodd">
        <g id="Team-Expand" transform="translate(-81.000000, -5469.000000)" fill="#ED5338" fill-rule="nonzero">
            <path d="M91.9300292,5470.96241 C88.2419825,5472.31579 86.4314869,5474.4812 85.9620991,5477.25564 C88.5772595,5477.52632 90.6559767,5479.21805 90.6559767,5482.12782 C90.6559767,5485.03759 88.6443149,5487 85.8279883,5487 C83.0116618,5487 81,5484.76692 81,5481.5188 C81,5476.44361 83.8833819,5471.36842 91.1253644,5469 L91.9300292,5470.96241 Z M104,5470.96241 C100.311953,5472.31579 98.5014577,5474.4812 98.03207,5477.25564 C100.64723,5477.52632 102.725948,5479.21805 102.725948,5482.12782 C102.725948,5485.03759 100.714286,5487 97.8979592,5487 C95.0816327,5487 93.0699708,5484.76692 93.0699708,5481.5188 C93.0699708,5476.44361 95.9533528,5471.36842 103.195335,5469 L104,5470.96241 Z" id="“"></path>
        </g>
    </g>
</svg>