<?xml version="1.0" encoding="UTF-8"?>
<svg width="114px" height="48px" viewBox="0 0 114 48" version="1.1" xmlns="http://www.w3.org/2000/svg" xmlns:xlink="http://www.w3.org/1999/xlink">
    <!-- Generator: sketchtool 57.1 (101010) - https://sketch.com -->
    <title>96F24FF1-892F-4061-823C-ECD1A772E6F2</title>
    <desc>Created with sketchtool.</desc>
    <g id="Desktop" stroke="none" stroke-width="1" fill="none" fill-rule="evenodd" opacity="0.679873512">
        <g id="Inform" transform="translate(-935.000000, -4141.000000)" fill="#FFFFFF">
            <g id="Group-4" transform="translate(0.000000, 4048.000000)">
                <g id="LA-Promise-Fund-Logo" transform="translate(935.000000, 93.000000)">
                    <polygon id="Fill-1" points="114 48 50.8946921 48 50.8946921 47.233098 113.311727 47.233098 113.311727 0.767772512 0.688565258 0.767772512 0.688565258 23.4109682 0 23.4109682 0 0 114 0"></polygon>
                    <path d="M56.8328521,13.2916273 C57.4003612,13.2916273 57.6839711,13.0485495 57.6839711,12.5623938 L57.6839711,11.7291863 C57.6839711,11.2430306 57.4003612,10.9999528 56.8328521,10.9999528 L55.5560289,10.9999528 L55.5560289,13.2916273 L56.8328521,13.2916273 Z M53.96,9.75 L57.2585563,9.75 C58.6062819,9.75 59.28,10.2361557 59.28,11.2084671 L59.28,12.874882 C59.28,13.9860141 58.6062819,14.5415801 57.2585563,14.5415801 L55.5560289,14.5415801 L55.5560289,17.25 L53.96,17.25 L53.96,9.75 Z" id="Fill-2"></path>
                    <path d="M64.1777778,12.875 C64.5532225,12.875 64.7406387,12.7013259 64.7406387,12.3542611 L64.7406387,11.5207389 C64.7406387,11.1736741 64.5532225,11 64.1777778,11 L62.4888889,11 L62.4888889,12.875 L64.1777778,12.875 Z M60.8,9.75 L64.5155556,9.75 C65.791639,9.75 66.4295276,10.1667611 66.4295276,11 L66.4295276,12.25 C66.4295276,13.0832389 66.0167221,13.5 65.1911111,13.5 C66.0167221,13.5 66.4295276,13.9167611 66.4295276,14.75 L66.4295276,16.8332389 C66.4295276,17.1111741 66.5798892,17.25 66.88,17.25 L65.1911111,17.25 C64.8910003,17.25 64.7406387,17.1111741 64.7406387,16.8332389 L64.7406387,14.6457389 C64.7406387,14.2986741 64.5532225,14.125 64.1777778,14.125 L62.4888889,14.125 L62.4888889,17.25 L60.8,17.25 L60.8,9.75 Z" id="Fill-3"></path>
                    <path d="M72.8839711,11.4729022 C72.8839711,11.1349377 72.5291693,10.9662311 71.8198553,10.9662311 C71.1105413,10.9662311 70.7560289,11.1349377 70.7560289,11.4729022 L70.7560289,15.5270978 C70.7560289,15.8647866 71.1105413,16.0337689 71.8198553,16.0337689 C72.5291693,16.0337689 72.8839711,15.8647866 72.8839711,15.5270978 L72.8839711,11.4729022 Z M74.48,15.9326001 C74.48,16.8108667 73.5932851,17.25 71.8198553,17.25 C70.0464255,17.25 69.16,16.8108667 69.16,15.9326001 L69.16,11.0673999 C69.16,10.1891333 70.0464255,9.75 71.8198553,9.75 C73.5932851,9.75 74.48,10.1891333 74.48,11.0673999 L74.48,15.9326001 Z" id="Fill-4"></path>
                    <polygon id="Fill-5" points="78.8472388 17.25 77.52 17.25 77.52 9.75 79.3575871 9.75 81.0113599 15.037568 82.7267744 9.75 84.36 9.75 84.36 17.25 82.8286774 17.25 82.8286774 12.9999433 81.5014387 17.25 79.9701161 17.25 78.8472388 12.9999433"></polygon>
                    <polygon id="Fill-6" points="87.4 17.25 87.4 16.2082389 87.7966272 16.2082389 87.7966272 10.7914778 87.4 10.7914778 87.4 9.75 89.68 9.75 89.68 10.7914778 89.2836424 10.7914778 89.2836424 16.2082389 89.68 16.2082389 89.68 17.25"></polygon>
                    <path d="M94.8693576,12.5391719 L95.8906424,12.7905778 C97.323451,13.0607289 98.04,13.6013066 98.04,14.4123112 L98.04,15.9326001 C98.04,16.8108667 97.1532851,17.25 95.3801447,17.25 C93.6067149,17.25 92.72,16.8108667 92.72,15.9326001 L92.72,14.9189822 L94.3160289,14.9189822 L94.3160289,15.5270978 C94.3160289,15.8647866 94.6705413,16.0337689 95.3801447,16.0337689 C96.0894587,16.0337689 96.4439711,15.8647866 96.4439711,15.5270978 L96.4439711,15.0204267 C96.4439711,14.6149245 96.2596247,14.3607619 95.8906424,14.2582148 L94.8693576,14.0068089 C93.4362596,13.7363822 92.72,13.2636178 92.72,12.5876888 L92.72,11.0673999 C92.72,10.1891333 93.6067149,9.75 95.3801447,9.75 C97.1532851,9.75 98.04,10.1891333 98.04,11.0673999 L98.04,12.0810178 L96.4439711,12.0810178 L96.4439711,11.4729022 C96.4439711,11.1349377 96.0894587,10.9662311 95.3801447,10.9662311 C94.6705413,10.9662311 94.3160289,11.1349377 94.3160289,11.4729022 L94.3160289,11.77696 C94.3160289,12.1824622 94.5003753,12.4366248 94.8693576,12.5391719" id="Fill-7"></path>
                    <polygon id="Fill-8" points="101.98833 11 101.98833 12.7707389 104.323991 12.7707389 104.323991 14.0207389 101.98833 14.0207389 101.98833 16 104.88 16 104.88 17.25 100.32 17.25 100.32 9.75 104.88 9.75 104.88 11"></polygon>
                    <polygon id="Fill-9" points="58.0566063 25.2499016 58.0566063 29.1456447 62.7277979 29.1456447 62.7277979 31.8958415 58.0566063 31.8958415 58.0566063 39 54.72 39 54.72 22.5 63.84 22.5 63.84 25.2499016"></polygon>
                    <path d="M77.52,36.0617874 C77.52,38.0206929 75.6198042,39 71.82,39 C68.0199021,39 66.12,38.0206929 66.12,36.0617874 L66.12,22.5 L69.54,22.5 L69.54,35.15761 C69.54,35.9112368 70.2999021,36.287759 71.82,36.287759 C73.3400979,36.287759 74.1,35.9112368 74.1,35.15761 L74.1,22.5 L77.52,22.5 L77.52,36.0617874 Z" id="Fill-10"></path>
                    <polygon id="Fill-11" points="83.6634404 22.5 88.3184583 31.437623 88.3184583 22.5 91.2 22.5 91.2 39 88.0968452 39 83.4418273 30.062377 83.4418273 39 80.56 39 80.56 22.5"></polygon>
                    <path d="M101.08,36.2500984 C101.839902,36.2500984 102.22,35.8680528 102.22,35.1042569 L102.22,26.6709104 C102.22,25.7541781 101.839902,25.2959596 101.08,25.2959596 L97.66,25.2959596 L97.66,36.2500984 L101.08,36.2500984 Z M94.24,22.5 L102.22,22.5 C104.5,22.5 105.64,23.4167323 105.64,25.2501968 L105.64,36.2500984 C105.64,38.083563 104.5,39 102.22,39 L94.24,39 L94.24,22.5 Z" id="Fill-12"></path>
                    <polygon id="Fill-13" points="6.84 39 6.84 9.75 12.665894 9.75 12.665894 33.5679196 22.8 33.5679196 22.8 39"></polygon>
                    <path d="M34.9761388,27.3834553 L41.0660704,27.3834553 L40.1779062,24.2497996 C39.3744555,21.3663697 38.3593685,17.940084 38.0211046,16.0595989 C37.6403363,18.3577103 36.7524672,21.4083657 35.9065122,24.2497996 L34.9761388,27.3834553 Z M42.4616305,32.0633783 L33.5805787,32.0633783 L31.5081955,39 L25.08,39 L34.6378749,9.75 L41.3621251,9.75 L50.92,39 L44.4918045,39 L42.4616305,32.0633783 Z" id="Fill-14"></path>
                </g>
            </g>
        </g>
    </g>
</svg>