<?xml version="1.0" encoding="UTF-8"?>
<svg width="439px" height="401px" viewBox="0 0 439 401" version="1.1" xmlns="http://www.w3.org/2000/svg" xmlns:xlink="http://www.w3.org/1999/xlink">
    <!-- Generator: sketchtool 57.1 (101010) - https://sketch.com -->
    <title>428EE29F-85A8-4C50-89F4-1B3CCF8B6732</title>
    <desc>Created with sketchtool.</desc>
    <g id="Desktop" stroke="none" stroke-width="1" fill="none" fill-rule="evenodd">
        <g id="Inform" transform="translate(-828.000000, -1759.000000)" fill="#00B18F">
            <g id="Group-9" transform="translate(828.000000, 1759.000000)">
                <polygon id="Fill-1" points="129.897196 183.212518 129.897196 399.570574 155.897196 399.570574 155.897196 140.570574"></polygon>
                <polygon id="Fill-2" points="183.897196 91.4988412 183.897196 400.570574 209.897196 400.570574 209.897196 48.5705742"></polygon>
                <polygon id="Fill-3" points="75.8971963 275.12568 75.8971963 400.570574 101.897196 400.570574 101.897196 232.570574"></polygon>
                <polygon id="Fill-4" points="0.897196262 400.570574 47.8971963 400.570574 47.8971963 321.570574"></polygon>
                <polygon id="Fill-5" points="237.066592 0.570574163 236.897196 0.849163095 236.897196 400.570574 262.897196 400.570574 262.897196 50.6778346"></polygon>
                <polygon id="Fill-6" points="291.897196 106.570574 291.897196 400.570574 317.897196 400.570574 317.897196 157.160554"></polygon>
                <polygon id="Fill-7" points="399.897196 321.570574 399.897196 400.570574 438.897196 400.570574"></polygon>
                <polygon id="Fill-8" points="345.897196 213.570574 345.897196 400.570574 371.897196 400.570574 371.897196 264.310434"></polygon>
            </g>
        </g>
    </g>
</svg>