<?xml version="1.0" encoding="UTF-8"?>
<svg width="18px" height="15px" viewBox="0 0 18 15" version="1.1" xmlns="http://www.w3.org/2000/svg" xmlns:xlink="http://www.w3.org/1999/xlink">
    <!-- Generator: Sketch 57.1 (83088) - https://sketch.com -->
    <title>Twitter</title>
    <desc>Created with Sketch.</desc>
    <g id="Desktop" stroke="none" stroke-width="1" fill="none" fill-rule="evenodd">
        <g id="News-Detail" transform="translate(-223.000000, -664.000000)" fill="#CC4FAA">
            <g id="Feature-Socials-Horiz" transform="translate(189.000000, 662.000000)">
                <path d="M50.0995402,5.56577712 L50.1103711,6.03801461 C50.1103711,10.8602692 46.5265786,16.415862 39.9721919,16.415862 C37.9605328,16.415862 36.0880672,15.8121784 34.5105893,14.7769258 C34.7892126,14.8102835 35.0731803,14.8288264 35.3608372,14.8288264 C37.030685,14.8288264 38.5665893,14.245477 39.7858913,13.2676927 C38.2264807,13.2380145 36.9112142,12.182476 36.4571685,10.7343424 C36.6760564,10.776899 36.8967888,10.79733 37.1283522,10.79733 C37.4539408,10.79733 37.7687458,10.754725 38.0672336,10.6714516 C36.4372094,10.3343881 35.2088738,8.86214393 35.2088738,7.09548963 L35.2088738,7.04920512 C35.6900677,7.32323262 36.2382333,7.48624509 36.8225807,7.5066277 C35.8673347,6.8528833 35.2377719,5.73624546 35.2377719,4.47141007 C35.2377719,3.80289917 35.413289,3.17694484 35.7190131,2.63808865 C37.4756025,4.84551085 40.102399,6.29732402 43.0639123,6.4492011 C43.0023324,6.18253265 42.9716843,5.90288904 42.9716843,5.61772615 C42.9716843,3.604786 44.5672294,1.97141751 46.5355649,1.97141751 C47.5594854,1.97141751 48.485786,2.41397676 49.1369632,3.12320446 C49.9474822,2.95840065 50.7109411,2.65474332 51.400192,2.23803755 C51.1342442,3.08989512 50.5698086,3.80469051 49.8334978,4.2565454 C50.5517887,4.16949567 51.2409922,3.97133409 51.8796359,3.68244327 C51.4020366,4.41205358 50.7959801,5.05466258 50.0995402,5.56577712" id="Twitter" transform="translate(43.195113, 9.193640) rotate(-360.000000) translate(-43.195113, -9.193640) "></path>
            </g>
        </g>
    </g>
</svg>